<?xml version="1.0" standalone="no"?>
<!DOCTYPE svg PUBLIC "-//W3C//DTD SVG 20010904//EN"
 "http://www.w3.org/TR/2001/REC-SVG-20010904/DTD/svg10.dtd">
<svg version="1.0" xmlns="http://www.w3.org/2000/svg"
 width="693.000000pt" height="693.000000pt" viewBox="0 0 693.000000 693.000000"
 preserveAspectRatio="xMidYMid meet">
<metadata>
Created by potrace 1.11, written by Peter Selinger 2001-2013
</metadata>
<g transform="translate(0.000000,693.000000) scale(0.100000,-0.100000)"
fill="#000000" stroke="none">
<path d="M3175 6704 c-240 -24 -549 -88 -745 -154 -536 -181 -1052 -528 -1413
-948 l-71 -83 -215 3 c-247 3 -288 -4 -430 -73 -147 -72 -248 -199 -286 -360
-12 -54 -15 -185 -15 -880 0 -773 1 -820 19 -891 31 -121 83 -212 167 -295
l73 -73 26 -127 c253 -1260 1246 -2262 2501 -2527 255 -53 337 -61 679 -61
342 0 424 8 679 61 1256 265 2254 1274 2501 2530 27 136 29 141 62 164 56 38
130 126 162 193 63 128 61 102 61 998 0 784 -1 819 -20 895 -65 255 -233 411
-479 446 -50 7 -138 7 -259 2 l-183 -9 -79 90 c-447 514 -1062 881 -1721 1029
-262 59 -353 68 -674 71 -165 1 -318 1 -340 -1z"/>
</g>
</svg>
